<mxfile host="app.diagrams.net" agent="Mozilla/5.0 (X11; Linux x86_64) AppleWebKit/537.36 (KHTML, like Gecko) Chrome/131.0.0.0 Safari/537.36" version="26.0.7">
  <diagram name="Page-1" id="wFiJZPlzP4qnISC6K1Q2">
    <mxGraphModel dx="1297" dy="755" grid="1" gridSize="10" guides="1" tooltips="1" connect="1" arrows="1" fold="1" page="1" pageScale="1" pageWidth="850" pageHeight="1100" math="0" shadow="0">
      <root>
        <mxCell id="0" />
        <mxCell id="1" parent="0" />
        <mxCell id="-BxECxdR7PIk8pP-hwTl-1" value="&#39;A&#39;" style="rounded=0;whiteSpace=wrap;html=1;strokeWidth=8;fontColor=#FF3333;fontSize=80;fillColor=#f5f5f5;strokeColor=#666666;" vertex="1" parent="1">
          <mxGeometry x="45" y="470" width="120" height="120" as="geometry" />
        </mxCell>
        <mxCell id="-BxECxdR7PIk8pP-hwTl-2" value="&#39;r&#39;" style="rounded=0;whiteSpace=wrap;html=1;strokeWidth=8;fontColor=#FF3333;fontSize=80;fillColor=#f5f5f5;strokeColor=#666666;" vertex="1" parent="1">
          <mxGeometry x="165" y="470" width="120" height="120" as="geometry" />
        </mxCell>
        <mxCell id="-BxECxdR7PIk8pP-hwTl-3" value="&#39;r&#39;" style="rounded=0;whiteSpace=wrap;html=1;strokeWidth=8;fontColor=#FF3333;fontSize=80;fillColor=#f5f5f5;strokeColor=#666666;" vertex="1" parent="1">
          <mxGeometry x="285" y="470" width="120" height="120" as="geometry" />
        </mxCell>
        <mxCell id="-BxECxdR7PIk8pP-hwTl-4" value="&#39;o&#39;" style="rounded=0;whiteSpace=wrap;html=1;strokeWidth=8;fontColor=#FF3333;fontSize=80;fillColor=#f5f5f5;strokeColor=#666666;" vertex="1" parent="1">
          <mxGeometry x="405" y="470" width="120" height="120" as="geometry" />
        </mxCell>
        <mxCell id="-BxECxdR7PIk8pP-hwTl-5" value="&#39;z&#39;" style="rounded=0;whiteSpace=wrap;html=1;strokeWidth=8;fontColor=#FF3333;fontSize=80;fillColor=#f5f5f5;strokeColor=#666666;" vertex="1" parent="1">
          <mxGeometry x="525" y="470" width="120" height="120" as="geometry" />
        </mxCell>
        <mxCell id="-BxECxdR7PIk8pP-hwTl-7" value="&#39;\0&#39;" style="rounded=0;whiteSpace=wrap;html=1;strokeWidth=8;fontColor=#67AB9F;fontSize=70;fillColor=#f5f5f5;strokeColor=#666666;" vertex="1" parent="1">
          <mxGeometry x="645" y="470" width="120" height="120" as="geometry" />
        </mxCell>
        <mxCell id="-BxECxdR7PIk8pP-hwTl-8" value="0" style="text;html=1;align=center;verticalAlign=middle;whiteSpace=wrap;rounded=0;fontSize=48;" vertex="1" parent="1">
          <mxGeometry x="75" y="420" width="60" height="30" as="geometry" />
        </mxCell>
        <mxCell id="-BxECxdR7PIk8pP-hwTl-9" value="1" style="text;html=1;align=center;verticalAlign=middle;whiteSpace=wrap;rounded=0;fontSize=48;" vertex="1" parent="1">
          <mxGeometry x="195" y="420" width="60" height="30" as="geometry" />
        </mxCell>
        <mxCell id="-BxECxdR7PIk8pP-hwTl-10" value="2" style="text;html=1;align=center;verticalAlign=middle;whiteSpace=wrap;rounded=0;fontSize=48;" vertex="1" parent="1">
          <mxGeometry x="315" y="420" width="60" height="30" as="geometry" />
        </mxCell>
        <mxCell id="-BxECxdR7PIk8pP-hwTl-11" value="3" style="text;html=1;align=center;verticalAlign=middle;whiteSpace=wrap;rounded=0;fontSize=48;" vertex="1" parent="1">
          <mxGeometry x="435" y="420" width="60" height="30" as="geometry" />
        </mxCell>
        <mxCell id="-BxECxdR7PIk8pP-hwTl-12" value="4" style="text;html=1;align=center;verticalAlign=middle;whiteSpace=wrap;rounded=0;fontSize=48;" vertex="1" parent="1">
          <mxGeometry x="555" y="420" width="60" height="30" as="geometry" />
        </mxCell>
        <mxCell id="-BxECxdR7PIk8pP-hwTl-13" value="5" style="text;html=1;align=center;verticalAlign=middle;whiteSpace=wrap;rounded=0;fontSize=48;" vertex="1" parent="1">
          <mxGeometry x="675" y="420" width="60" height="30" as="geometry" />
        </mxCell>
        <mxCell id="-BxECxdR7PIk8pP-hwTl-16" value="i" style="text;html=1;align=center;verticalAlign=middle;whiteSpace=wrap;rounded=0;fontSize=56;fontFamily=Times New Roman;fontStyle=2" vertex="1" parent="1">
          <mxGeometry x="75" y="230" width="60" height="30" as="geometry" />
        </mxCell>
        <mxCell id="-BxECxdR7PIk8pP-hwTl-17" value="" style="endArrow=classic;html=1;rounded=0;strokeWidth=4;fillColor=#dae8fc;strokeColor=#6c8ebf;" edge="1" parent="1">
          <mxGeometry width="50" height="50" relative="1" as="geometry">
            <mxPoint x="104.5" y="280" as="sourcePoint" />
            <mxPoint x="104.5" y="390" as="targetPoint" />
          </mxGeometry>
        </mxCell>
        <mxCell id="-BxECxdR7PIk8pP-hwTl-18" value="str[&lt;font style=&quot;color: rgb(0, 0, 255);&quot;&gt;i&lt;/font&gt;] = str[&lt;font style=&quot;color: rgb(0, 0, 255);&quot;&gt;0&lt;/font&gt;] = &lt;font style=&quot;color: rgb(255, 51, 51);&quot;&gt;&#39;A&#39;&lt;/font&gt;&amp;nbsp;" style="text;html=1;align=center;verticalAlign=middle;whiteSpace=wrap;rounded=0;fontSize=50;" vertex="1" parent="1">
          <mxGeometry x="215" y="650" width="420" height="30" as="geometry" />
        </mxCell>
        <mxCell id="-BxECxdR7PIk8pP-hwTl-19" value="&#39;A&#39;" style="rounded=0;whiteSpace=wrap;html=1;strokeWidth=8;fontColor=#FF3333;fontSize=80;fillColor=#f5f5f5;strokeColor=#666666;" vertex="1" parent="1">
          <mxGeometry x="910" y="470" width="120" height="120" as="geometry" />
        </mxCell>
        <mxCell id="-BxECxdR7PIk8pP-hwTl-20" value="&#39;r&#39;" style="rounded=0;whiteSpace=wrap;html=1;strokeWidth=8;fontColor=#FF3333;fontSize=80;fillColor=#f5f5f5;strokeColor=#666666;" vertex="1" parent="1">
          <mxGeometry x="1030" y="470" width="120" height="120" as="geometry" />
        </mxCell>
        <mxCell id="-BxECxdR7PIk8pP-hwTl-21" value="&#39;r&#39;" style="rounded=0;whiteSpace=wrap;html=1;strokeWidth=8;fontColor=#FF3333;fontSize=80;fillColor=#f5f5f5;strokeColor=#666666;" vertex="1" parent="1">
          <mxGeometry x="1150" y="470" width="120" height="120" as="geometry" />
        </mxCell>
        <mxCell id="-BxECxdR7PIk8pP-hwTl-22" value="&#39;o&#39;" style="rounded=0;whiteSpace=wrap;html=1;strokeWidth=8;fontColor=#FF3333;fontSize=80;fillColor=#f5f5f5;strokeColor=#666666;" vertex="1" parent="1">
          <mxGeometry x="1270" y="470" width="120" height="120" as="geometry" />
        </mxCell>
        <mxCell id="-BxECxdR7PIk8pP-hwTl-23" value="&#39;z&#39;" style="rounded=0;whiteSpace=wrap;html=1;strokeWidth=8;fontColor=#FF3333;fontSize=80;fillColor=#f5f5f5;strokeColor=#666666;" vertex="1" parent="1">
          <mxGeometry x="1390" y="470" width="120" height="120" as="geometry" />
        </mxCell>
        <mxCell id="-BxECxdR7PIk8pP-hwTl-24" value="&#39;\0&#39;" style="rounded=0;whiteSpace=wrap;html=1;strokeWidth=8;fontColor=#67AB9F;fontSize=70;fillColor=#f5f5f5;strokeColor=#666666;" vertex="1" parent="1">
          <mxGeometry x="1510" y="470" width="120" height="120" as="geometry" />
        </mxCell>
        <mxCell id="-BxECxdR7PIk8pP-hwTl-25" value="0" style="text;html=1;align=center;verticalAlign=middle;whiteSpace=wrap;rounded=0;fontSize=48;" vertex="1" parent="1">
          <mxGeometry x="940" y="420" width="60" height="30" as="geometry" />
        </mxCell>
        <mxCell id="-BxECxdR7PIk8pP-hwTl-26" value="1" style="text;html=1;align=center;verticalAlign=middle;whiteSpace=wrap;rounded=0;fontSize=48;" vertex="1" parent="1">
          <mxGeometry x="1060" y="420" width="60" height="30" as="geometry" />
        </mxCell>
        <mxCell id="-BxECxdR7PIk8pP-hwTl-27" value="2" style="text;html=1;align=center;verticalAlign=middle;whiteSpace=wrap;rounded=0;fontSize=48;" vertex="1" parent="1">
          <mxGeometry x="1180" y="420" width="60" height="30" as="geometry" />
        </mxCell>
        <mxCell id="-BxECxdR7PIk8pP-hwTl-28" value="3" style="text;html=1;align=center;verticalAlign=middle;whiteSpace=wrap;rounded=0;fontSize=48;" vertex="1" parent="1">
          <mxGeometry x="1300" y="420" width="60" height="30" as="geometry" />
        </mxCell>
        <mxCell id="-BxECxdR7PIk8pP-hwTl-29" value="4" style="text;html=1;align=center;verticalAlign=middle;whiteSpace=wrap;rounded=0;fontSize=48;" vertex="1" parent="1">
          <mxGeometry x="1420" y="420" width="60" height="30" as="geometry" />
        </mxCell>
        <mxCell id="-BxECxdR7PIk8pP-hwTl-30" value="5" style="text;html=1;align=center;verticalAlign=middle;whiteSpace=wrap;rounded=0;fontSize=48;" vertex="1" parent="1">
          <mxGeometry x="1540" y="420" width="60" height="30" as="geometry" />
        </mxCell>
        <mxCell id="-BxECxdR7PIk8pP-hwTl-31" value="i" style="text;html=1;align=center;verticalAlign=middle;whiteSpace=wrap;rounded=0;fontSize=56;fontFamily=Times New Roman;fontStyle=2" vertex="1" parent="1">
          <mxGeometry x="1060" y="230" width="60" height="30" as="geometry" />
        </mxCell>
        <mxCell id="-BxECxdR7PIk8pP-hwTl-32" value="" style="endArrow=classic;html=1;rounded=0;strokeWidth=4;fillColor=#dae8fc;strokeColor=#6c8ebf;" edge="1" parent="1">
          <mxGeometry width="50" height="50" relative="1" as="geometry">
            <mxPoint x="1089.5" y="280" as="sourcePoint" />
            <mxPoint x="1089.5" y="390" as="targetPoint" />
          </mxGeometry>
        </mxCell>
        <mxCell id="-BxECxdR7PIk8pP-hwTl-33" value="str[&lt;font style=&quot;color: rgb(0, 0, 255);&quot;&gt;i&lt;/font&gt;] = str[&lt;font style=&quot;color: rgb(0, 0, 255);&quot;&gt;1&lt;/font&gt;] = &lt;font style=&quot;color: rgb(255, 51, 51);&quot;&gt;&#39;r&#39;&lt;/font&gt;&amp;nbsp;" style="text;html=1;align=center;verticalAlign=middle;whiteSpace=wrap;rounded=0;fontSize=50;" vertex="1" parent="1">
          <mxGeometry x="1080" y="650" width="420" height="30" as="geometry" />
        </mxCell>
        <mxCell id="-BxECxdR7PIk8pP-hwTl-34" value="&#39;A&#39;" style="rounded=0;whiteSpace=wrap;html=1;strokeWidth=8;fontColor=#FF3333;fontSize=80;fillColor=#f5f5f5;strokeColor=#666666;" vertex="1" parent="1">
          <mxGeometry x="1780" y="470" width="120" height="120" as="geometry" />
        </mxCell>
        <mxCell id="-BxECxdR7PIk8pP-hwTl-35" value="&#39;r&#39;" style="rounded=0;whiteSpace=wrap;html=1;strokeWidth=8;fontColor=#FF3333;fontSize=80;fillColor=#f5f5f5;strokeColor=#666666;" vertex="1" parent="1">
          <mxGeometry x="1900" y="470" width="120" height="120" as="geometry" />
        </mxCell>
        <mxCell id="-BxECxdR7PIk8pP-hwTl-36" value="&#39;r&#39;" style="rounded=0;whiteSpace=wrap;html=1;strokeWidth=8;fontColor=#FF3333;fontSize=80;fillColor=#f5f5f5;strokeColor=#666666;" vertex="1" parent="1">
          <mxGeometry x="2020" y="470" width="120" height="120" as="geometry" />
        </mxCell>
        <mxCell id="-BxECxdR7PIk8pP-hwTl-37" value="&#39;o&#39;" style="rounded=0;whiteSpace=wrap;html=1;strokeWidth=8;fontColor=#FF3333;fontSize=80;fillColor=#f5f5f5;strokeColor=#666666;" vertex="1" parent="1">
          <mxGeometry x="2140" y="470" width="120" height="120" as="geometry" />
        </mxCell>
        <mxCell id="-BxECxdR7PIk8pP-hwTl-38" value="&#39;z&#39;" style="rounded=0;whiteSpace=wrap;html=1;strokeWidth=8;fontColor=#FF3333;fontSize=80;fillColor=#f5f5f5;strokeColor=#666666;" vertex="1" parent="1">
          <mxGeometry x="2260" y="470" width="120" height="120" as="geometry" />
        </mxCell>
        <mxCell id="-BxECxdR7PIk8pP-hwTl-39" value="&#39;\0&#39;" style="rounded=0;whiteSpace=wrap;html=1;strokeWidth=8;fontColor=#67AB9F;fontSize=70;fillColor=#f5f5f5;strokeColor=#666666;" vertex="1" parent="1">
          <mxGeometry x="2380" y="470" width="120" height="120" as="geometry" />
        </mxCell>
        <mxCell id="-BxECxdR7PIk8pP-hwTl-40" value="0" style="text;html=1;align=center;verticalAlign=middle;whiteSpace=wrap;rounded=0;fontSize=48;" vertex="1" parent="1">
          <mxGeometry x="1810" y="420" width="60" height="30" as="geometry" />
        </mxCell>
        <mxCell id="-BxECxdR7PIk8pP-hwTl-41" value="1" style="text;html=1;align=center;verticalAlign=middle;whiteSpace=wrap;rounded=0;fontSize=48;" vertex="1" parent="1">
          <mxGeometry x="1930" y="420" width="60" height="30" as="geometry" />
        </mxCell>
        <mxCell id="-BxECxdR7PIk8pP-hwTl-42" value="2" style="text;html=1;align=center;verticalAlign=middle;whiteSpace=wrap;rounded=0;fontSize=48;" vertex="1" parent="1">
          <mxGeometry x="2050" y="420" width="60" height="30" as="geometry" />
        </mxCell>
        <mxCell id="-BxECxdR7PIk8pP-hwTl-43" value="3" style="text;html=1;align=center;verticalAlign=middle;whiteSpace=wrap;rounded=0;fontSize=48;" vertex="1" parent="1">
          <mxGeometry x="2170" y="420" width="60" height="30" as="geometry" />
        </mxCell>
        <mxCell id="-BxECxdR7PIk8pP-hwTl-44" value="4" style="text;html=1;align=center;verticalAlign=middle;whiteSpace=wrap;rounded=0;fontSize=48;" vertex="1" parent="1">
          <mxGeometry x="2290" y="420" width="60" height="30" as="geometry" />
        </mxCell>
        <mxCell id="-BxECxdR7PIk8pP-hwTl-45" value="5" style="text;html=1;align=center;verticalAlign=middle;whiteSpace=wrap;rounded=0;fontSize=48;" vertex="1" parent="1">
          <mxGeometry x="2410" y="420" width="60" height="30" as="geometry" />
        </mxCell>
        <mxCell id="-BxECxdR7PIk8pP-hwTl-46" value="i" style="text;html=1;align=center;verticalAlign=middle;whiteSpace=wrap;rounded=0;fontSize=56;fontFamily=Times New Roman;fontStyle=2" vertex="1" parent="1">
          <mxGeometry x="2050" y="240" width="60" height="30" as="geometry" />
        </mxCell>
        <mxCell id="-BxECxdR7PIk8pP-hwTl-47" value="" style="endArrow=classic;html=1;rounded=0;strokeWidth=4;fillColor=#dae8fc;strokeColor=#6c8ebf;" edge="1" parent="1">
          <mxGeometry width="50" height="50" relative="1" as="geometry">
            <mxPoint x="2079.5" y="290" as="sourcePoint" />
            <mxPoint x="2079.5" y="400" as="targetPoint" />
          </mxGeometry>
        </mxCell>
        <mxCell id="-BxECxdR7PIk8pP-hwTl-48" value="str[&lt;font style=&quot;color: rgb(0, 0, 255);&quot;&gt;i&lt;/font&gt;] = str[&lt;font style=&quot;color: rgb(0, 0, 255);&quot;&gt;2&lt;/font&gt;] = &lt;font style=&quot;color: rgb(255, 51, 51);&quot;&gt;&#39;r&#39;&lt;/font&gt;&amp;nbsp;" style="text;html=1;align=center;verticalAlign=middle;whiteSpace=wrap;rounded=0;fontSize=50;" vertex="1" parent="1">
          <mxGeometry x="1950" y="650" width="420" height="30" as="geometry" />
        </mxCell>
        <mxCell id="-BxECxdR7PIk8pP-hwTl-49" value="&#39;A&#39;" style="rounded=0;whiteSpace=wrap;html=1;strokeWidth=8;fontColor=#FF3333;fontSize=80;fillColor=#f5f5f5;strokeColor=#666666;" vertex="1" parent="1">
          <mxGeometry x="45" y="970" width="120" height="120" as="geometry" />
        </mxCell>
        <mxCell id="-BxECxdR7PIk8pP-hwTl-50" value="&#39;r&#39;" style="rounded=0;whiteSpace=wrap;html=1;strokeWidth=8;fontColor=#FF3333;fontSize=80;fillColor=#f5f5f5;strokeColor=#666666;" vertex="1" parent="1">
          <mxGeometry x="165" y="970" width="120" height="120" as="geometry" />
        </mxCell>
        <mxCell id="-BxECxdR7PIk8pP-hwTl-51" value="&#39;r&#39;" style="rounded=0;whiteSpace=wrap;html=1;strokeWidth=8;fontColor=#FF3333;fontSize=80;fillColor=#f5f5f5;strokeColor=#666666;" vertex="1" parent="1">
          <mxGeometry x="285" y="970" width="120" height="120" as="geometry" />
        </mxCell>
        <mxCell id="-BxECxdR7PIk8pP-hwTl-52" value="&#39;o&#39;" style="rounded=0;whiteSpace=wrap;html=1;strokeWidth=8;fontColor=#FF3333;fontSize=80;fillColor=#f5f5f5;strokeColor=#666666;" vertex="1" parent="1">
          <mxGeometry x="405" y="970" width="120" height="120" as="geometry" />
        </mxCell>
        <mxCell id="-BxECxdR7PIk8pP-hwTl-53" value="&#39;z&#39;" style="rounded=0;whiteSpace=wrap;html=1;strokeWidth=8;fontColor=#FF3333;fontSize=80;fillColor=#f5f5f5;strokeColor=#666666;" vertex="1" parent="1">
          <mxGeometry x="525" y="970" width="120" height="120" as="geometry" />
        </mxCell>
        <mxCell id="-BxECxdR7PIk8pP-hwTl-54" value="&#39;\0&#39;" style="rounded=0;whiteSpace=wrap;html=1;strokeWidth=8;fontColor=#67AB9F;fontSize=70;fillColor=#f5f5f5;strokeColor=#666666;" vertex="1" parent="1">
          <mxGeometry x="645" y="970" width="120" height="120" as="geometry" />
        </mxCell>
        <mxCell id="-BxECxdR7PIk8pP-hwTl-55" value="0" style="text;html=1;align=center;verticalAlign=middle;whiteSpace=wrap;rounded=0;fontSize=48;" vertex="1" parent="1">
          <mxGeometry x="75" y="920" width="60" height="30" as="geometry" />
        </mxCell>
        <mxCell id="-BxECxdR7PIk8pP-hwTl-56" value="1" style="text;html=1;align=center;verticalAlign=middle;whiteSpace=wrap;rounded=0;fontSize=48;" vertex="1" parent="1">
          <mxGeometry x="195" y="920" width="60" height="30" as="geometry" />
        </mxCell>
        <mxCell id="-BxECxdR7PIk8pP-hwTl-57" value="2" style="text;html=1;align=center;verticalAlign=middle;whiteSpace=wrap;rounded=0;fontSize=48;" vertex="1" parent="1">
          <mxGeometry x="315" y="920" width="60" height="30" as="geometry" />
        </mxCell>
        <mxCell id="-BxECxdR7PIk8pP-hwTl-58" value="3" style="text;html=1;align=center;verticalAlign=middle;whiteSpace=wrap;rounded=0;fontSize=48;" vertex="1" parent="1">
          <mxGeometry x="435" y="920" width="60" height="30" as="geometry" />
        </mxCell>
        <mxCell id="-BxECxdR7PIk8pP-hwTl-59" value="4" style="text;html=1;align=center;verticalAlign=middle;whiteSpace=wrap;rounded=0;fontSize=48;" vertex="1" parent="1">
          <mxGeometry x="555" y="920" width="60" height="30" as="geometry" />
        </mxCell>
        <mxCell id="-BxECxdR7PIk8pP-hwTl-60" value="5" style="text;html=1;align=center;verticalAlign=middle;whiteSpace=wrap;rounded=0;fontSize=48;" vertex="1" parent="1">
          <mxGeometry x="675" y="920" width="60" height="30" as="geometry" />
        </mxCell>
        <mxCell id="-BxECxdR7PIk8pP-hwTl-61" value="i" style="text;html=1;align=center;verticalAlign=middle;whiteSpace=wrap;rounded=0;fontSize=56;fontFamily=Times New Roman;fontStyle=2" vertex="1" parent="1">
          <mxGeometry x="435" y="740" width="60" height="30" as="geometry" />
        </mxCell>
        <mxCell id="-BxECxdR7PIk8pP-hwTl-62" value="" style="endArrow=classic;html=1;rounded=0;strokeWidth=4;fillColor=#dae8fc;strokeColor=#6c8ebf;" edge="1" parent="1">
          <mxGeometry width="50" height="50" relative="1" as="geometry">
            <mxPoint x="464.5" y="790" as="sourcePoint" />
            <mxPoint x="464.5" y="900" as="targetPoint" />
          </mxGeometry>
        </mxCell>
        <mxCell id="-BxECxdR7PIk8pP-hwTl-63" value="str[&lt;font style=&quot;color: rgb(0, 0, 255);&quot;&gt;i&lt;/font&gt;] = str[&lt;font style=&quot;color: rgb(0, 0, 255);&quot;&gt;3&lt;/font&gt;] = &lt;font style=&quot;color: rgb(255, 51, 51);&quot;&gt;&#39;o&#39;&lt;/font&gt;&amp;nbsp;" style="text;html=1;align=center;verticalAlign=middle;whiteSpace=wrap;rounded=0;fontSize=50;" vertex="1" parent="1">
          <mxGeometry x="215" y="1150" width="420" height="30" as="geometry" />
        </mxCell>
        <mxCell id="-BxECxdR7PIk8pP-hwTl-64" value="&#39;A&#39;" style="rounded=0;whiteSpace=wrap;html=1;strokeWidth=8;fontColor=#FF3333;fontSize=80;fillColor=#f5f5f5;strokeColor=#666666;" vertex="1" parent="1">
          <mxGeometry x="910" y="960" width="120" height="120" as="geometry" />
        </mxCell>
        <mxCell id="-BxECxdR7PIk8pP-hwTl-65" value="&#39;r&#39;" style="rounded=0;whiteSpace=wrap;html=1;strokeWidth=8;fontColor=#FF3333;fontSize=80;fillColor=#f5f5f5;strokeColor=#666666;" vertex="1" parent="1">
          <mxGeometry x="1030" y="960" width="120" height="120" as="geometry" />
        </mxCell>
        <mxCell id="-BxECxdR7PIk8pP-hwTl-66" value="&#39;r&#39;" style="rounded=0;whiteSpace=wrap;html=1;strokeWidth=8;fontColor=#FF3333;fontSize=80;fillColor=#f5f5f5;strokeColor=#666666;" vertex="1" parent="1">
          <mxGeometry x="1150" y="960" width="120" height="120" as="geometry" />
        </mxCell>
        <mxCell id="-BxECxdR7PIk8pP-hwTl-67" value="&#39;o&#39;" style="rounded=0;whiteSpace=wrap;html=1;strokeWidth=8;fontColor=#FF3333;fontSize=80;fillColor=#f5f5f5;strokeColor=#666666;" vertex="1" parent="1">
          <mxGeometry x="1270" y="960" width="120" height="120" as="geometry" />
        </mxCell>
        <mxCell id="-BxECxdR7PIk8pP-hwTl-68" value="&#39;z&#39;" style="rounded=0;whiteSpace=wrap;html=1;strokeWidth=8;fontColor=#FF3333;fontSize=80;fillColor=#f5f5f5;strokeColor=#666666;" vertex="1" parent="1">
          <mxGeometry x="1390" y="960" width="120" height="120" as="geometry" />
        </mxCell>
        <mxCell id="-BxECxdR7PIk8pP-hwTl-69" value="&#39;\0&#39;" style="rounded=0;whiteSpace=wrap;html=1;strokeWidth=8;fontColor=#67AB9F;fontSize=70;fillColor=#f5f5f5;strokeColor=#666666;" vertex="1" parent="1">
          <mxGeometry x="1510" y="960" width="120" height="120" as="geometry" />
        </mxCell>
        <mxCell id="-BxECxdR7PIk8pP-hwTl-70" value="0" style="text;html=1;align=center;verticalAlign=middle;whiteSpace=wrap;rounded=0;fontSize=48;" vertex="1" parent="1">
          <mxGeometry x="940" y="910" width="60" height="30" as="geometry" />
        </mxCell>
        <mxCell id="-BxECxdR7PIk8pP-hwTl-71" value="1" style="text;html=1;align=center;verticalAlign=middle;whiteSpace=wrap;rounded=0;fontSize=48;" vertex="1" parent="1">
          <mxGeometry x="1060" y="910" width="60" height="30" as="geometry" />
        </mxCell>
        <mxCell id="-BxECxdR7PIk8pP-hwTl-72" value="2" style="text;html=1;align=center;verticalAlign=middle;whiteSpace=wrap;rounded=0;fontSize=48;" vertex="1" parent="1">
          <mxGeometry x="1180" y="910" width="60" height="30" as="geometry" />
        </mxCell>
        <mxCell id="-BxECxdR7PIk8pP-hwTl-73" value="3" style="text;html=1;align=center;verticalAlign=middle;whiteSpace=wrap;rounded=0;fontSize=48;" vertex="1" parent="1">
          <mxGeometry x="1300" y="910" width="60" height="30" as="geometry" />
        </mxCell>
        <mxCell id="-BxECxdR7PIk8pP-hwTl-74" value="4" style="text;html=1;align=center;verticalAlign=middle;whiteSpace=wrap;rounded=0;fontSize=48;" vertex="1" parent="1">
          <mxGeometry x="1420" y="910" width="60" height="30" as="geometry" />
        </mxCell>
        <mxCell id="-BxECxdR7PIk8pP-hwTl-75" value="5" style="text;html=1;align=center;verticalAlign=middle;whiteSpace=wrap;rounded=0;fontSize=48;" vertex="1" parent="1">
          <mxGeometry x="1540" y="910" width="60" height="30" as="geometry" />
        </mxCell>
        <mxCell id="-BxECxdR7PIk8pP-hwTl-76" value="i" style="text;html=1;align=center;verticalAlign=middle;whiteSpace=wrap;rounded=0;fontSize=56;fontFamily=Times New Roman;fontStyle=2" vertex="1" parent="1">
          <mxGeometry x="1420" y="730" width="60" height="30" as="geometry" />
        </mxCell>
        <mxCell id="-BxECxdR7PIk8pP-hwTl-77" value="" style="endArrow=classic;html=1;rounded=0;strokeWidth=4;fillColor=#dae8fc;strokeColor=#6c8ebf;" edge="1" parent="1">
          <mxGeometry width="50" height="50" relative="1" as="geometry">
            <mxPoint x="1449.5" y="780" as="sourcePoint" />
            <mxPoint x="1449.5" y="890" as="targetPoint" />
          </mxGeometry>
        </mxCell>
        <mxCell id="-BxECxdR7PIk8pP-hwTl-78" value="str[&lt;font style=&quot;color: rgb(0, 0, 255);&quot;&gt;i&lt;/font&gt;] = str[&lt;font style=&quot;color: rgb(0, 0, 255);&quot;&gt;4&lt;/font&gt;] = &lt;font style=&quot;color: rgb(255, 51, 51);&quot;&gt;&#39;z&#39;&lt;/font&gt;&amp;nbsp;" style="text;html=1;align=center;verticalAlign=middle;whiteSpace=wrap;rounded=0;fontSize=50;" vertex="1" parent="1">
          <mxGeometry x="1080" y="1140" width="420" height="30" as="geometry" />
        </mxCell>
        <mxCell id="-BxECxdR7PIk8pP-hwTl-79" value="&#39;A&#39;" style="rounded=0;whiteSpace=wrap;html=1;strokeWidth=8;fontColor=#FF3333;fontSize=80;fillColor=#f5f5f5;strokeColor=#666666;" vertex="1" parent="1">
          <mxGeometry x="1780" y="960" width="120" height="120" as="geometry" />
        </mxCell>
        <mxCell id="-BxECxdR7PIk8pP-hwTl-80" value="&#39;r&#39;" style="rounded=0;whiteSpace=wrap;html=1;strokeWidth=8;fontColor=#FF3333;fontSize=80;fillColor=#f5f5f5;strokeColor=#666666;" vertex="1" parent="1">
          <mxGeometry x="1900" y="960" width="120" height="120" as="geometry" />
        </mxCell>
        <mxCell id="-BxECxdR7PIk8pP-hwTl-81" value="&#39;r&#39;" style="rounded=0;whiteSpace=wrap;html=1;strokeWidth=8;fontColor=#FF3333;fontSize=80;fillColor=#f5f5f5;strokeColor=#666666;" vertex="1" parent="1">
          <mxGeometry x="2020" y="960" width="120" height="120" as="geometry" />
        </mxCell>
        <mxCell id="-BxECxdR7PIk8pP-hwTl-82" value="&#39;o&#39;" style="rounded=0;whiteSpace=wrap;html=1;strokeWidth=8;fontColor=#FF3333;fontSize=80;fillColor=#f5f5f5;strokeColor=#666666;" vertex="1" parent="1">
          <mxGeometry x="2140" y="960" width="120" height="120" as="geometry" />
        </mxCell>
        <mxCell id="-BxECxdR7PIk8pP-hwTl-83" value="&#39;z&#39;" style="rounded=0;whiteSpace=wrap;html=1;strokeWidth=8;fontColor=#FF3333;fontSize=80;fillColor=#f5f5f5;strokeColor=#666666;" vertex="1" parent="1">
          <mxGeometry x="2260" y="960" width="120" height="120" as="geometry" />
        </mxCell>
        <mxCell id="-BxECxdR7PIk8pP-hwTl-84" value="&#39;\0&#39;" style="rounded=0;whiteSpace=wrap;html=1;strokeWidth=8;fontColor=#67AB9F;fontSize=70;fillColor=#f5f5f5;strokeColor=#666666;" vertex="1" parent="1">
          <mxGeometry x="2380" y="960" width="120" height="120" as="geometry" />
        </mxCell>
        <mxCell id="-BxECxdR7PIk8pP-hwTl-85" value="0" style="text;html=1;align=center;verticalAlign=middle;whiteSpace=wrap;rounded=0;fontSize=48;" vertex="1" parent="1">
          <mxGeometry x="1810" y="910" width="60" height="30" as="geometry" />
        </mxCell>
        <mxCell id="-BxECxdR7PIk8pP-hwTl-86" value="1" style="text;html=1;align=center;verticalAlign=middle;whiteSpace=wrap;rounded=0;fontSize=48;" vertex="1" parent="1">
          <mxGeometry x="1930" y="910" width="60" height="30" as="geometry" />
        </mxCell>
        <mxCell id="-BxECxdR7PIk8pP-hwTl-87" value="2" style="text;html=1;align=center;verticalAlign=middle;whiteSpace=wrap;rounded=0;fontSize=48;" vertex="1" parent="1">
          <mxGeometry x="2050" y="910" width="60" height="30" as="geometry" />
        </mxCell>
        <mxCell id="-BxECxdR7PIk8pP-hwTl-88" value="3" style="text;html=1;align=center;verticalAlign=middle;whiteSpace=wrap;rounded=0;fontSize=48;" vertex="1" parent="1">
          <mxGeometry x="2170" y="910" width="60" height="30" as="geometry" />
        </mxCell>
        <mxCell id="-BxECxdR7PIk8pP-hwTl-89" value="4" style="text;html=1;align=center;verticalAlign=middle;whiteSpace=wrap;rounded=0;fontSize=48;" vertex="1" parent="1">
          <mxGeometry x="2290" y="910" width="60" height="30" as="geometry" />
        </mxCell>
        <mxCell id="-BxECxdR7PIk8pP-hwTl-90" value="5" style="text;html=1;align=center;verticalAlign=middle;whiteSpace=wrap;rounded=0;fontSize=48;" vertex="1" parent="1">
          <mxGeometry x="2410" y="910" width="60" height="30" as="geometry" />
        </mxCell>
        <mxCell id="-BxECxdR7PIk8pP-hwTl-91" value="i" style="text;html=1;align=center;verticalAlign=middle;whiteSpace=wrap;rounded=0;fontSize=56;fontFamily=Times New Roman;fontStyle=2" vertex="1" parent="1">
          <mxGeometry x="2410" y="720" width="60" height="30" as="geometry" />
        </mxCell>
        <mxCell id="-BxECxdR7PIk8pP-hwTl-92" value="" style="endArrow=classic;html=1;rounded=0;strokeWidth=4;fillColor=#dae8fc;strokeColor=#6c8ebf;" edge="1" parent="1">
          <mxGeometry width="50" height="50" relative="1" as="geometry">
            <mxPoint x="2439.5" y="770" as="sourcePoint" />
            <mxPoint x="2439.5" y="880" as="targetPoint" />
          </mxGeometry>
        </mxCell>
        <mxCell id="-BxECxdR7PIk8pP-hwTl-93" value="str[&lt;font style=&quot;color: rgb(0, 0, 255);&quot;&gt;i&lt;/font&gt;] = str[&lt;font style=&quot;color: rgb(0, 0, 255);&quot;&gt;5&lt;/font&gt;] = &lt;font style=&quot;color: rgb(0, 102, 0);&quot;&gt;FIM!!!&lt;/font&gt;" style="text;html=1;align=center;verticalAlign=middle;whiteSpace=wrap;rounded=0;fontSize=50;" vertex="1" parent="1">
          <mxGeometry x="1895" y="1140" width="530" height="30" as="geometry" />
        </mxCell>
        <mxCell id="-BxECxdR7PIk8pP-hwTl-94" value="" style="shape=flexArrow;endArrow=classic;html=1;rounded=0;endWidth=32.38095238095238;endSize=10.904761904761903;width=18.095238095238095;fillColor=#000000;" edge="1" parent="1">
          <mxGeometry width="50" height="50" relative="1" as="geometry">
            <mxPoint x="800" y="529.52" as="sourcePoint" />
            <mxPoint x="870" y="529.52" as="targetPoint" />
          </mxGeometry>
        </mxCell>
        <mxCell id="-BxECxdR7PIk8pP-hwTl-95" value="" style="shape=flexArrow;endArrow=classic;html=1;rounded=0;endWidth=32.38095238095238;endSize=10.904761904761903;width=18.095238095238095;fillColor=#000000;" edge="1" parent="1">
          <mxGeometry width="50" height="50" relative="1" as="geometry">
            <mxPoint x="1680" y="529.52" as="sourcePoint" />
            <mxPoint x="1750" y="529.52" as="targetPoint" />
          </mxGeometry>
        </mxCell>
        <mxCell id="-BxECxdR7PIk8pP-hwTl-96" value="" style="shape=flexArrow;endArrow=classic;html=1;rounded=0;endWidth=32.38095238095238;endSize=10.904761904761903;width=18.095238095238095;fillColor=#000000;" edge="1" parent="1">
          <mxGeometry width="50" height="50" relative="1" as="geometry">
            <mxPoint x="800" y="1029.52" as="sourcePoint" />
            <mxPoint x="870" y="1029.52" as="targetPoint" />
          </mxGeometry>
        </mxCell>
        <mxCell id="-BxECxdR7PIk8pP-hwTl-97" value="" style="shape=flexArrow;endArrow=classic;html=1;rounded=0;endWidth=32.38095238095238;endSize=10.904761904761903;width=18.095238095238095;fillColor=#000000;" edge="1" parent="1">
          <mxGeometry width="50" height="50" relative="1" as="geometry">
            <mxPoint x="1680" y="1029.52" as="sourcePoint" />
            <mxPoint x="1750" y="1029.52" as="targetPoint" />
          </mxGeometry>
        </mxCell>
      </root>
    </mxGraphModel>
  </diagram>
</mxfile>
